<svg width="348" height="51" viewBox="0 0 348 51" fill="none" xmlns="http://www.w3.org/2000/svg">
<rect width="348" height="51" rx="14" fill="#D4EBFF"/>
<path d="M14.581 31H21.466V29.776H16.043V25.594H21.177V24.37H16.043V20.494H21.33V19.27H14.581V31ZM28.9063 25.73V31H30.3173V25.237C30.3173 23.639 29.3483 22.33 27.5293 22.33C26.2713 22.33 25.4043 22.993 24.9623 24.166H24.9283V22.5H23.5683V31H24.9793V25.594C24.9793 24.387 25.5573 23.503 26.9513 23.503C28.3283 23.503 28.9063 24.319 28.9063 25.73ZM33.1744 23.622V29.096C33.1744 30.32 33.7184 31 35.1464 31H36.6764V29.878H35.5374C34.8234 29.878 34.5854 29.606 34.5854 28.943V23.622H36.7444V22.5H34.5854V20.562H33.1744V22.5H31.6274V23.622H33.1744ZM45.2421 28.314H43.8311C43.6441 29.011 43.2021 30.048 41.7231 30.048C40.1591 30.048 39.1391 28.943 39.0711 27.175H45.3441C45.5821 24.319 44.0521 22.33 41.5191 22.33C38.9861 22.33 37.6431 24.387 37.6431 26.75C37.6431 29.113 39.0541 31.17 41.5871 31.17C43.9161 31.17 44.9361 29.827 45.2421 28.314ZM41.5191 23.452C43.0151 23.452 43.8311 24.523 43.9501 26.053H39.0711C39.2071 24.523 40.0231 23.452 41.5191 23.452ZM48.6578 25.9C48.6578 24.37 49.5248 23.86 50.9018 23.86H51.2078V22.33C49.9498 22.33 49.0828 22.993 48.6408 24.166H48.6068V22.5H47.2468V31H48.6578V25.9ZM63.433 22.5H61.971L59.268 30.048L56.514 22.5H55.052L57.84 30.15H59.234L57.891 33.89H59.353L63.433 22.5ZM68.1697 31.17C70.7197 31.17 72.2497 29.011 72.2497 26.75C72.2497 24.489 70.7197 22.33 68.1697 22.33C65.6196 22.33 64.0896 24.489 64.0896 26.75C64.0896 29.011 65.6196 31.17 68.1697 31.17ZM68.1697 30.048C66.5376 30.048 65.6196 28.637 65.6196 26.75C65.6196 24.863 66.5376 23.452 68.1697 23.452C69.8017 23.452 70.7197 24.863 70.7197 26.75C70.7197 28.637 69.8017 30.048 68.1697 30.048ZM75.485 27.77V22.5H74.074V28.263C74.074 29.861 75.043 31.17 76.913 31.17C78.12 31.17 78.902 30.507 79.344 29.334H79.378V31H80.738V22.5H79.327V27.906C79.327 29.113 78.834 29.997 77.406 29.997C76.063 29.997 75.485 29.181 75.485 27.77ZM84.5636 25.9C84.5636 24.37 85.4306 23.86 86.8076 23.86H87.1136V22.33C85.8556 22.33 84.9886 22.993 84.5466 24.166H84.5126V22.5H83.1526V31H84.5636V25.9ZM92.4981 31H99.3831V29.776H93.9601V25.594H99.0941V24.37H93.9601V20.494H99.2471V19.27H92.4981V31ZM102.896 25.594C102.896 24.387 103.389 23.503 104.817 23.503C106.16 23.503 106.738 24.319 106.738 25.73V31H108.149V25.594C108.149 24.387 108.642 23.503 110.07 23.503C111.413 23.503 111.991 24.319 111.991 25.73V31H113.402V25.237C113.402 23.639 112.433 22.33 110.563 22.33C109.356 22.33 108.455 22.993 108.013 24.166H107.996C107.639 23.095 106.738 22.33 105.31 22.33C104.103 22.33 103.321 22.993 102.879 24.166H102.845V22.5H101.485V31H102.896V25.594ZM120.843 25.509V25.781L118.463 26.036C116.661 26.223 115.131 26.784 115.131 28.535C115.131 30.184 116.457 31.17 118.089 31.17C119.415 31.17 120.418 30.507 120.86 29.334H120.894V31H122.254V25.832C122.254 23.265 120.707 22.33 118.82 22.33C116.661 22.33 115.522 23.622 115.42 25.186H116.831C116.882 24.183 117.528 23.452 118.82 23.452C120.146 23.452 120.843 24.234 120.843 25.509ZM118.429 30.048C117.426 30.048 116.661 29.453 116.661 28.603C116.661 27.702 117.307 27.243 118.582 27.107L120.843 26.852V27.311C120.843 29.147 119.925 30.048 118.429 30.048ZM124.468 20.919H126.117V19.27H124.468V20.919ZM125.998 22.5H124.587V31H125.998V22.5ZM128.418 31H129.829V19.27H128.418V31Z" fill="#8B8989"/>
</svg>
