<svg width="348" height="51" viewBox="0 0 348 51" fill="none" xmlns="http://www.w3.org/2000/svg">
<rect width="348" height="51" rx="14" fill="#D4EBFF"/>
<path d="M14.581 31H21.466V29.776H16.043V25.594H21.177V24.37H16.043V20.494H21.33V19.27H14.581V31ZM28.9063 25.73V31H30.3173V25.237C30.3173 23.639 29.3483 22.33 27.5293 22.33C26.2713 22.33 25.4043 22.993 24.9623 24.166H24.9283V22.5H23.5683V31H24.9793V25.594C24.9793 24.387 25.5573 23.503 26.9513 23.503C28.3283 23.503 28.9063 24.319 28.9063 25.73ZM33.1744 23.622V29.096C33.1744 30.32 33.7184 31 35.1464 31H36.6764V29.878H35.5374C34.8234 29.878 34.5854 29.606 34.5854 28.943V23.622H36.7444V22.5H34.5854V20.562H33.1744V22.5H31.6274V23.622H33.1744ZM45.2421 28.314H43.8311C43.6441 29.011 43.2021 30.048 41.7231 30.048C40.1591 30.048 39.1391 28.943 39.0711 27.175H45.3441C45.5821 24.319 44.0521 22.33 41.5191 22.33C38.9861 22.33 37.6431 24.387 37.6431 26.75C37.6431 29.113 39.0541 31.17 41.5871 31.17C43.9161 31.17 44.9361 29.827 45.2421 28.314ZM41.5191 23.452C43.0151 23.452 43.8311 24.523 43.9501 26.053H39.0711C39.2071 24.523 40.0231 23.452 41.5191 23.452ZM48.6578 25.9C48.6578 24.37 49.5248 23.86 50.9018 23.86H51.2078V22.33C49.9498 22.33 49.0828 22.993 48.6408 24.166H48.6068V22.5H47.2468V31H48.6578V25.9ZM63.433 22.5H61.971L59.268 30.048L56.514 22.5H55.052L57.84 30.15H59.234L57.891 33.89H59.353L63.433 22.5ZM68.1697 31.17C70.7197 31.17 72.2497 29.011 72.2497 26.75C72.2497 24.489 70.7197 22.33 68.1697 22.33C65.6196 22.33 64.0896 24.489 64.0896 26.75C64.0896 29.011 65.6196 31.17 68.1697 31.17ZM68.1697 30.048C66.5376 30.048 65.6196 28.637 65.6196 26.75C65.6196 24.863 66.5376 23.452 68.1697 23.452C69.8017 23.452 70.7197 24.863 70.7197 26.75C70.7197 28.637 69.8017 30.048 68.1697 30.048ZM75.485 27.77V22.5H74.074V28.263C74.074 29.861 75.043 31.17 76.913 31.17C78.12 31.17 78.902 30.507 79.344 29.334H79.378V31H80.738V22.5H79.327V27.906C79.327 29.113 78.834 29.997 77.406 29.997C76.063 29.997 75.485 29.181 75.485 27.77ZM84.5636 25.9C84.5636 24.37 85.4306 23.86 86.8076 23.86H87.1136V22.33C85.8556 22.33 84.9886 22.993 84.5466 24.166H84.5126V22.5H83.1526V31H84.5636V25.9ZM101.678 19.27H100.216V30.932L95.5071 19.27H92.4981V31H93.9601V19.338L98.6691 31H101.678V19.27ZM109.491 25.509V25.781L107.111 26.036C105.309 26.223 103.779 26.784 103.779 28.535C103.779 30.184 105.105 31.17 106.737 31.17C108.063 31.17 109.066 30.507 109.508 29.334H109.542V31H110.902V25.832C110.902 23.265 109.355 22.33 107.468 22.33C105.309 22.33 104.17 23.622 104.068 25.186H105.479C105.53 24.183 106.176 23.452 107.468 23.452C108.794 23.452 109.491 24.234 109.491 25.509ZM107.077 30.048C106.074 30.048 105.309 29.453 105.309 28.603C105.309 27.702 105.955 27.243 107.23 27.107L109.491 26.852V27.311C109.491 29.147 108.573 30.048 107.077 30.048ZM114.646 25.594C114.646 24.387 115.139 23.503 116.567 23.503C117.91 23.503 118.488 24.319 118.488 25.73V31H119.899V25.594C119.899 24.387 120.392 23.503 121.82 23.503C123.163 23.503 123.741 24.319 123.741 25.73V31H125.152V25.237C125.152 23.639 124.183 22.33 122.313 22.33C121.106 22.33 120.205 22.993 119.763 24.166H119.746C119.389 23.095 118.488 22.33 117.06 22.33C115.853 22.33 115.071 22.993 114.629 24.166H114.595V22.5H113.235V31H114.646V25.594ZM134.564 28.314H133.153C132.966 29.011 132.524 30.048 131.045 30.048C129.481 30.048 128.461 28.943 128.393 27.175H134.666C134.904 24.319 133.374 22.33 130.841 22.33C128.308 22.33 126.965 24.387 126.965 26.75C126.965 29.113 128.376 31.17 130.909 31.17C133.238 31.17 134.258 29.827 134.564 28.314ZM130.841 23.452C132.337 23.452 133.153 24.523 133.272 26.053H128.393C128.529 24.523 129.345 23.452 130.841 23.452Z" fill="#8B8989"/>
</svg>
