<svg width="348" height="51" viewBox="0 0 348 51" fill="none" xmlns="http://www.w3.org/2000/svg">
<rect width="348" height="51" rx="14" fill="#D4EBFF"/>
<path d="M14.581 31H21.466V29.776H16.043V25.594H21.177V24.37H16.043V20.494H21.33V19.27H14.581V31ZM28.9063 25.73V31H30.3173V25.237C30.3173 23.639 29.3483 22.33 27.5293 22.33C26.2713 22.33 25.4043 22.993 24.9623 24.166H24.9283V22.5H23.5683V31H24.9793V25.594C24.9793 24.387 25.5573 23.503 26.9513 23.503C28.3283 23.503 28.9063 24.319 28.9063 25.73ZM33.1744 23.622V29.096C33.1744 30.32 33.7184 31 35.1464 31H36.6764V29.878H35.5374C34.8234 29.878 34.5854 29.606 34.5854 28.943V23.622H36.7444V22.5H34.5854V20.562H33.1744V22.5H31.6274V23.622H33.1744ZM45.2421 28.314H43.8311C43.6441 29.011 43.2021 30.048 41.7231 30.048C40.1591 30.048 39.1391 28.943 39.0711 27.175H45.3441C45.5821 24.319 44.0521 22.33 41.5191 22.33C38.9861 22.33 37.6431 24.387 37.6431 26.75C37.6431 29.113 39.0541 31.17 41.5871 31.17C43.9161 31.17 44.9361 29.827 45.2421 28.314ZM41.5191 23.452C43.0151 23.452 43.8311 24.523 43.9501 26.053H39.0711C39.2071 24.523 40.0231 23.452 41.5191 23.452ZM48.6578 25.9C48.6578 24.37 49.5248 23.86 50.9018 23.86H51.2078V22.33C49.9498 22.33 49.0828 22.993 48.6408 24.166H48.6068V22.5H47.2468V31H48.6578V25.9ZM63.433 22.5H61.971L59.268 30.048L56.514 22.5H55.052L57.84 30.15H59.234L57.891 33.89H59.353L63.433 22.5ZM68.1697 31.17C70.7197 31.17 72.2497 29.011 72.2497 26.75C72.2497 24.489 70.7197 22.33 68.1697 22.33C65.6196 22.33 64.0896 24.489 64.0896 26.75C64.0896 29.011 65.6196 31.17 68.1697 31.17ZM68.1697 30.048C66.5376 30.048 65.6196 28.637 65.6196 26.75C65.6196 24.863 66.5376 23.452 68.1697 23.452C69.8017 23.452 70.7197 24.863 70.7197 26.75C70.7197 28.637 69.8017 30.048 68.1697 30.048ZM75.485 27.77V22.5H74.074V28.263C74.074 29.861 75.043 31.17 76.913 31.17C78.12 31.17 78.902 30.507 79.344 29.334H79.378V31H80.738V22.5H79.327V27.906C79.327 29.113 78.834 29.997 77.406 29.997C76.063 29.997 75.485 29.181 75.485 27.77ZM84.5636 25.9C84.5636 24.37 85.4306 23.86 86.8076 23.86H87.1136V22.33C85.8556 22.33 84.9886 22.993 84.5466 24.166H84.5126V22.5H83.1526V31H84.5636V25.9ZM92.4981 31H93.9601V26.291H96.3401C99.1791 26.291 100.964 25.05 100.964 22.772C100.964 20.494 99.1791 19.27 96.3401 19.27H92.4981V31ZM96.5101 20.494C98.3291 20.494 99.3831 21.259 99.3831 22.772C99.3831 24.285 98.3291 25.067 96.5101 25.067H93.9601V20.494H96.5101ZM107.582 25.509V25.781L105.202 26.036C103.4 26.223 101.87 26.784 101.87 28.535C101.87 30.184 103.196 31.17 104.828 31.17C106.154 31.17 107.157 30.507 107.599 29.334H107.633V31H108.993V25.832C108.993 23.265 107.446 22.33 105.559 22.33C103.4 22.33 102.261 23.622 102.159 25.186H103.57C103.621 24.183 104.267 23.452 105.559 23.452C106.885 23.452 107.582 24.234 107.582 25.509ZM105.168 30.048C104.165 30.048 103.4 29.453 103.4 28.603C103.4 27.702 104.046 27.243 105.321 27.107L107.582 26.852V27.311C107.582 29.147 106.664 30.048 105.168 30.048ZM116.341 28.773C116.341 29.572 115.44 30.048 114.352 30.048C113.077 30.048 112.193 29.198 112.108 28.025H110.697C110.799 29.623 112.091 31.17 114.301 31.17C116.511 31.17 117.701 30.15 117.701 28.688C117.701 27.311 116.885 26.478 115.253 26.104L114.114 25.849C112.839 25.56 112.329 25.322 112.329 24.625C112.329 23.843 113.128 23.452 114.114 23.452C115.304 23.452 116.001 24.03 116.12 25.016H117.531C117.412 23.452 116.052 22.33 114.114 22.33C112.295 22.33 110.952 23.35 110.952 24.761C110.952 26.104 111.938 26.835 113.57 27.192L114.709 27.447C116.001 27.736 116.341 28.212 116.341 28.773ZM124.572 28.773C124.572 29.572 123.671 30.048 122.583 30.048C121.308 30.048 120.424 29.198 120.339 28.025H118.928C119.03 29.623 120.322 31.17 122.532 31.17C124.742 31.17 125.932 30.15 125.932 28.688C125.932 27.311 125.116 26.478 123.484 26.104L122.345 25.849C121.07 25.56 120.56 25.322 120.56 24.625C120.56 23.843 121.359 23.452 122.345 23.452C123.535 23.452 124.232 24.03 124.351 25.016H125.762C125.643 23.452 124.283 22.33 122.345 22.33C120.526 22.33 119.183 23.35 119.183 24.761C119.183 26.104 120.169 26.835 121.801 27.192L122.94 27.447C124.232 27.736 124.572 28.212 124.572 28.773ZM132.192 22.5L130.509 30.932L128.418 22.5H126.956L129.064 31H131.903L133.586 22.568L135.269 31H138.108L140.216 22.5H138.754L136.663 30.932L134.98 22.5H132.192ZM145.298 31.17C147.848 31.17 149.378 29.011 149.378 26.75C149.378 24.489 147.848 22.33 145.298 22.33C142.748 22.33 141.218 24.489 141.218 26.75C141.218 29.011 142.748 31.17 145.298 31.17ZM145.298 30.048C143.666 30.048 142.748 28.637 142.748 26.75C142.748 24.863 143.666 23.452 145.298 23.452C146.93 23.452 147.848 24.863 147.848 26.75C147.848 28.637 146.93 30.048 145.298 30.048ZM152.681 25.9C152.681 24.37 153.548 23.86 154.925 23.86H155.231V22.33C153.973 22.33 153.106 22.993 152.664 24.166H152.63V22.5H151.27V31H152.681V25.9ZM155.953 26.75C155.953 29.096 157.194 31.17 159.608 31.17C160.951 31.17 161.971 30.422 162.447 29.198H162.481V31H163.892V19.27H162.481V24.302H162.447C161.971 23.078 160.951 22.33 159.608 22.33C157.194 22.33 155.953 24.404 155.953 26.75ZM157.483 26.75C157.483 24.863 158.401 23.452 160.033 23.452C161.665 23.452 162.549 24.863 162.549 26.75C162.549 28.637 161.665 30.048 160.033 30.048C158.401 30.048 157.483 28.637 157.483 26.75Z" fill="#8B8989"/>
</svg>
